<svg xmlns="http://www.w3.org/2000/svg" viewBox="0 0 100 100" width="100" height="100">
  <defs>
    <linearGradient id="shieldGradient" x1="0%" y1="0%" x2="100%" y2="100%">
      <stop offset="0%" style="stop-color:#0066AE"/>
      <stop offset="100%" style="stop-color:#002744"/>
    </linearGradient>
  </defs>
  <!-- Shield -->
  <path d="M50 5 L10 20 L10 50 C10 75 30 90 50 95 C70 90 90 75 90 50 L90 20 Z" 
        fill="url(#shieldGradient)" stroke="#0066AE" stroke-width="2"/>
  <!-- Inner shield highlight -->
  <path d="M50 12 L18 24 L18 48 C18 68 35 82 50 86 C65 82 82 68 82 48 L82 24 Z" 
        fill="none" stroke="rgba(255,255,255,0.3)" stroke-width="1"/>
  <!-- Person icon -->
  <circle cx="50" cy="40" r="10" fill="white"/>
  <path d="M30 70 C30 55 40 50 50 50 C60 50 70 55 70 70" 
        fill="white" stroke="none"/>
</svg>
